<?xml version="1.0" encoding="UTF-8" standalone="no"?>
<!DOCTYPE svg PUBLIC "-//W3C//DTD SVG 1.1//EN"
 "http://www.w3.org/Graphics/SVG/1.1/DTD/svg11.dtd">
<!-- Generated by graphviz version 5.0.0 (20220707.1540)
 -->
<!-- Title: dependencies Pages: 1 -->
<svg width="1493pt" height="253pt"
 viewBox="0.00 0.00 1493.00 252.80" xmlns="http://www.w3.org/2000/svg" xmlns:xlink="http://www.w3.org/1999/xlink">
<g id="graph0" class="graph" transform="scale(1 1) rotate(0) translate(4 248.8)">
<title>dependencies</title>
<polygon fill="white" stroke="transparent" points="-4,4 -4,-248.8 1489,-248.8 1489,4 -4,4"/>
<text text-anchor="middle" x="742.5" y="-8.2" font-family="sans-serif" font-size="14.00">dependencies</text>
<g id="clust7" class="cluster">
<title>cluster_CachingModule</title>
<polygon fill="none" stroke="black" stroke-dasharray="1,5" points="8,-32.8 8,-236.8 625,-236.8 625,-32.8 8,-32.8"/>
</g>
<g id="clust9" class="cluster">
<title>cluster_CachingModule_imports</title>
<polygon fill="none" stroke="black" points="374,-40.8 374,-92.8 617,-92.8 617,-40.8 374,-40.8"/>
</g>
<g id="clust10" class="cluster">
<title>cluster_CachingModule_exports</title>
<polygon fill="none" stroke="black" points="298,-176.8 298,-228.8 422,-228.8 422,-176.8 298,-176.8"/>
</g>
<g id="clust12" class="cluster">
<title>cluster_CachingModule_providers</title>
<polygon fill="none" stroke="black" points="16,-40.8 16,-92.8 366,-92.8 366,-40.8 16,-40.8"/>
</g>
<g id="clust25" class="cluster">
<title>cluster_InMemoryCacheModule</title>
<polygon fill="none" stroke="black" stroke-dasharray="1,5" points="939,-32.8 939,-236.8 1181,-236.8 1181,-32.8 939,-32.8"/>
</g>
<g id="clust28" class="cluster">
<title>cluster_InMemoryCacheModule_exports</title>
<polygon fill="none" stroke="black" points="974,-176.8 974,-228.8 1146,-228.8 1146,-176.8 974,-176.8"/>
</g>
<g id="clust30" class="cluster">
<title>cluster_InMemoryCacheModule_providers</title>
<polygon fill="none" stroke="black" points="947,-40.8 947,-92.8 1173,-92.8 1173,-40.8 947,-40.8"/>
</g>
<g id="clust37" class="cluster">
<title>cluster_MetricsModule</title>
<polygon fill="none" stroke="black" stroke-dasharray="1,5" points="633,-100.8 633,-168.8 931,-168.8 931,-100.8 633,-100.8"/>
</g>
<g id="clust40" class="cluster">
<title>cluster_MetricsModule_exports</title>
<polygon fill="none" stroke="black" points="803,-108.8 803,-160.8 923,-160.8 923,-108.8 803,-108.8"/>
</g>
<g id="clust42" class="cluster">
<title>cluster_MetricsModule_providers</title>
<polygon fill="none" stroke="black" points="641,-108.8 641,-160.8 795,-160.8 795,-108.8 641,-108.8"/>
</g>
<g id="clust43" class="cluster">
<title>cluster_RabbitModule</title>
<polygon fill="none" stroke="black" stroke-dasharray="1,5" points="1189,-32.8 1189,-236.8 1477,-236.8 1477,-32.8 1189,-32.8"/>
</g>
<g id="clust46" class="cluster">
<title>cluster_RabbitModule_exports</title>
<polygon fill="none" stroke="black" points="1230,-176.8 1230,-228.8 1436,-228.8 1436,-176.8 1230,-176.8"/>
</g>
<g id="clust48" class="cluster">
<title>cluster_RabbitModule_providers</title>
<polygon fill="none" stroke="black" points="1197,-40.8 1197,-92.8 1469,-92.8 1469,-40.8 1197,-40.8"/>
</g>
<!-- LoggingModule -->
<g id="node1" class="node">
<title>LoggingModule</title>
<polygon fill="#8dd3c7" stroke="black" points="488.49,-84.8 485.49,-88.8 464.49,-88.8 461.49,-84.8 381.51,-84.8 381.51,-48.8 488.49,-48.8 488.49,-84.8"/>
<text text-anchor="middle" x="435" y="-62.6" font-family="Times,serif" font-size="14.00">LoggingModule</text>
</g>
<!-- CachingModule -->
<g id="node3" class="node">
<title>CachingModule</title>
<polygon fill="#8dd3c7" stroke="black" points="413.21,-152.8 410.21,-156.8 389.21,-156.8 386.21,-152.8 306.79,-152.8 306.79,-116.8 413.21,-116.8 413.21,-152.8"/>
<text text-anchor="middle" x="360" y="-130.6" font-family="Times,serif" font-size="14.00">CachingModule</text>
</g>
<!-- LoggingModule&#45;&gt;CachingModule -->
<g id="edge1" class="edge">
<title>LoggingModule&#45;&gt;CachingModule</title>
<path fill="none" stroke="black" d="M397.3,-85.02C397.3,-85.02 397.3,-106.53 397.3,-106.53"/>
<polygon fill="black" stroke="black" points="393.8,-106.53 397.3,-116.53 400.8,-106.53 393.8,-106.53"/>
</g>
<!-- MetricsModule -->
<g id="node2" class="node">
<title>MetricsModule</title>
<polygon fill="#8dd3c7" stroke="black" points="609.32,-84.8 606.32,-88.8 585.32,-88.8 582.32,-84.8 506.68,-84.8 506.68,-48.8 609.32,-48.8 609.32,-84.8"/>
<text text-anchor="middle" x="558" y="-62.6" font-family="Times,serif" font-size="14.00">MetricsModule</text>
</g>
<!-- MetricsModule&#45;&gt;CachingModule -->
<g id="edge2" class="edge">
<title>MetricsModule&#45;&gt;CachingModule</title>
<path fill="none" stroke="black" d="M540.95,-85.07C540.95,-103.36 540.95,-128.8 540.95,-128.8 540.95,-128.8 423.31,-128.8 423.31,-128.8"/>
<polygon fill="black" stroke="black" points="423.31,-125.3 413.31,-128.8 423.31,-132.3 423.31,-125.3"/>
</g>
<!-- MetricsService  -->
<g id="node10" class="node">
<title>MetricsService </title>
<polygon fill="#fb8072" stroke="black" points="915.25,-152.8 810.75,-152.8 810.75,-116.8 915.25,-116.8 915.25,-152.8"/>
<text text-anchor="middle" x="863" y="-130.6" font-family="Times,serif" font-size="14.00">MetricsService </text>
</g>
<!-- MetricsModule&#45;&gt;MetricsService  -->
<g id="edge8" class="edge">
<title>MetricsModule&#45;&gt;MetricsService </title>
<path fill="none" stroke="black" stroke-dasharray="5,2" d="M609.39,-66.8C696.32,-66.8 863,-66.8 863,-66.8 863,-66.8 863,-106.58 863,-106.58"/>
<polygon fill="black" stroke="black" points="859.5,-106.58 863,-116.58 866.5,-106.58 859.5,-106.58"/>
</g>
<!-- CachingService  -->
<g id="node4" class="node">
<title>CachingService </title>
<polygon fill="#fb8072" stroke="black" points="414.13,-220.8 305.87,-220.8 305.87,-184.8 414.13,-184.8 414.13,-220.8"/>
<text text-anchor="middle" x="360" y="-198.6" font-family="Times,serif" font-size="14.00">CachingService </text>
</g>
<!-- CachingModule&#45;&gt;CachingService  -->
<g id="edge3" class="edge">
<title>CachingModule&#45;&gt;CachingService </title>
<path fill="none" stroke="black" stroke-dasharray="5,2" d="M360,-153.02C360,-153.02 360,-174.53 360,-174.53"/>
<polygon fill="black" stroke="black" points="356.5,-174.53 360,-184.53 363.5,-174.53 356.5,-174.53"/>
</g>
<!-- CachingService -->
<g id="node5" class="node">
<title>CachingService</title>
<ellipse fill="#fdb462" stroke="black" cx="286" cy="-66.8" rx="72.35" ry="18"/>
<text text-anchor="middle" x="286" y="-62.6" font-family="Times,serif" font-size="14.00">CachingService</text>
</g>
<!-- CachingService&#45;&gt;CachingModule -->
<g id="edge4" class="edge">
<title>CachingService&#45;&gt;CachingModule</title>
<path fill="none" stroke="black" d="M332.54,-80.56C332.54,-80.56 332.54,-106.67 332.54,-106.67"/>
<polygon fill="black" stroke="black" points="329.04,-106.67 332.54,-116.67 336.04,-106.67 329.04,-106.67"/>
</g>
<!-- LocalCacheService -->
<g id="node6" class="node">
<title>LocalCacheService</title>
<ellipse fill="#fdb462" stroke="black" cx="110" cy="-66.8" rx="86.21" ry="18"/>
<text text-anchor="middle" x="110" y="-62.6" font-family="Times,serif" font-size="14.00">LocalCacheService</text>
</g>
<!-- LocalCacheService&#45;&gt;CachingModule -->
<g id="edge5" class="edge">
<title>LocalCacheService&#45;&gt;CachingModule</title>
<path fill="none" stroke="black" d="M110,-85.02C110,-105.17 110,-134.8 110,-134.8 110,-134.8 296.68,-134.8 296.68,-134.8"/>
<polygon fill="black" stroke="black" points="296.68,-138.3 306.68,-134.8 296.68,-131.3 296.68,-138.3"/>
</g>
<!-- InMemoryCacheService  -->
<g id="node7" class="node">
<title>InMemoryCacheService </title>
<polygon fill="#fb8072" stroke="black" points="1138.34,-220.8 981.66,-220.8 981.66,-184.8 1138.34,-184.8 1138.34,-220.8"/>
<text text-anchor="middle" x="1060" y="-198.6" font-family="Times,serif" font-size="14.00">InMemoryCacheService </text>
</g>
<!-- InMemoryCacheModule -->
<g id="node8" class="node">
<title>InMemoryCacheModule</title>
<polygon fill="#8dd3c7" stroke="black" points="1137.41,-152.8 1134.41,-156.8 1113.41,-156.8 1110.41,-152.8 982.59,-152.8 982.59,-116.8 1137.41,-116.8 1137.41,-152.8"/>
<text text-anchor="middle" x="1060" y="-130.6" font-family="Times,serif" font-size="14.00">InMemoryCacheModule</text>
</g>
<!-- InMemoryCacheModule&#45;&gt;InMemoryCacheService  -->
<g id="edge6" class="edge">
<title>InMemoryCacheModule&#45;&gt;InMemoryCacheService </title>
<path fill="none" stroke="black" stroke-dasharray="5,2" d="M1060,-153.02C1060,-153.02 1060,-174.53 1060,-174.53"/>
<polygon fill="black" stroke="black" points="1056.5,-174.53 1060,-184.53 1063.5,-174.53 1056.5,-174.53"/>
</g>
<!-- InMemoryCacheService -->
<g id="node9" class="node">
<title>InMemoryCacheService</title>
<ellipse fill="#fdb462" stroke="black" cx="1060" cy="-66.8" rx="105.35" ry="18"/>
<text text-anchor="middle" x="1060" y="-62.6" font-family="Times,serif" font-size="14.00">InMemoryCacheService</text>
</g>
<!-- InMemoryCacheService&#45;&gt;InMemoryCacheModule -->
<g id="edge7" class="edge">
<title>InMemoryCacheService&#45;&gt;InMemoryCacheModule</title>
<path fill="none" stroke="black" d="M1060,-85.02C1060,-85.02 1060,-106.53 1060,-106.53"/>
<polygon fill="black" stroke="black" points="1056.5,-106.53 1060,-116.53 1063.5,-106.53 1056.5,-106.53"/>
</g>
<!-- MetricsService -->
<g id="node11" class="node">
<title>MetricsService</title>
<ellipse fill="#fdb462" stroke="black" cx="718" cy="-134.8" rx="69.48" ry="18"/>
<text text-anchor="middle" x="718" y="-130.6" font-family="Times,serif" font-size="14.00">MetricsService</text>
</g>
<!-- MetricsService&#45;&gt;MetricsModule -->
<g id="edge9" class="edge">
<title>MetricsService&#45;&gt;MetricsModule</title>
<path fill="none" stroke="black" d="M652.38,-140.8C614.81,-140.8 575.05,-140.8 575.05,-140.8 575.05,-140.8 575.05,-95.09 575.05,-95.09"/>
<polygon fill="black" stroke="black" points="578.55,-95.09 575.05,-85.09 571.55,-95.09 578.55,-95.09"/>
</g>
<!-- RabbitContextCheckerService  -->
<g id="node12" class="node">
<title>RabbitContextCheckerService </title>
<polygon fill="#fb8072" stroke="black" points="1427.78,-220.8 1238.22,-220.8 1238.22,-184.8 1427.78,-184.8 1427.78,-220.8"/>
<text text-anchor="middle" x="1333" y="-198.6" font-family="Times,serif" font-size="14.00">RabbitContextCheckerService </text>
</g>
<!-- RabbitModule -->
<g id="node13" class="node">
<title>RabbitModule</title>
<polygon fill="#8dd3c7" stroke="black" points="1381.38,-152.8 1378.38,-156.8 1357.38,-156.8 1354.38,-152.8 1284.62,-152.8 1284.62,-116.8 1381.38,-116.8 1381.38,-152.8"/>
<text text-anchor="middle" x="1333" y="-130.6" font-family="Times,serif" font-size="14.00">RabbitModule</text>
</g>
<!-- RabbitModule&#45;&gt;RabbitContextCheckerService  -->
<g id="edge10" class="edge">
<title>RabbitModule&#45;&gt;RabbitContextCheckerService </title>
<path fill="none" stroke="black" stroke-dasharray="5,2" d="M1333,-153.02C1333,-153.02 1333,-174.53 1333,-174.53"/>
<polygon fill="black" stroke="black" points="1329.5,-174.53 1333,-184.53 1336.5,-174.53 1329.5,-174.53"/>
</g>
<!-- RabbitContextCheckerService -->
<g id="node14" class="node">
<title>RabbitContextCheckerService</title>
<ellipse fill="#fdb462" stroke="black" cx="1333" cy="-66.8" rx="128.49" ry="18"/>
<text text-anchor="middle" x="1333" y="-62.6" font-family="Times,serif" font-size="14.00">RabbitContextCheckerService</text>
</g>
<!-- RabbitContextCheckerService&#45;&gt;RabbitModule -->
<g id="edge11" class="edge">
<title>RabbitContextCheckerService&#45;&gt;RabbitModule</title>
<path fill="none" stroke="black" d="M1333,-85.02C1333,-85.02 1333,-106.53 1333,-106.53"/>
<polygon fill="black" stroke="black" points="1329.5,-106.53 1333,-116.53 1336.5,-106.53 1329.5,-106.53"/>
</g>
</g>
</svg>
