<?xml version="1.0" encoding="UTF-8" standalone="no"?>
<!DOCTYPE svg PUBLIC "-//W3C//DTD SVG 1.1//EN"
 "http://www.w3.org/Graphics/SVG/1.1/DTD/svg11.dtd">
<!-- Generated by graphviz version 5.0.0 (20220707.1540)
 -->
<!-- Title: dependencies Pages: 1 -->
<svg width="312pt" height="247pt"
 viewBox="0.00 0.00 312.00 246.80" xmlns="http://www.w3.org/2000/svg" xmlns:xlink="http://www.w3.org/1999/xlink">
<g id="graph0" class="graph" transform="scale(1 1) rotate(0) translate(4 242.8)">
<title>dependencies</title>
<polygon fill="white" stroke="transparent" points="-4,4 -4,-242.8 308,-242.8 308,4 -4,4"/>
<text text-anchor="middle" x="152" y="-8.2" font-family="sans-serif" font-size="14.00">dependencies</text>
<g id="clust1" class="cluster">
<title>cluster_RabbitModule</title>
<polygon fill="none" stroke="black" stroke-dasharray="1,5" points="8,-32.8 8,-230.8 296,-230.8 296,-32.8 8,-32.8"/>
</g>
<g id="clust4" class="cluster">
<title>cluster_RabbitModule_exports</title>
<polygon fill="none" stroke="black" points="49,-170.8 49,-222.8 255,-222.8 255,-170.8 49,-170.8"/>
</g>
<g id="clust6" class="cluster">
<title>cluster_RabbitModule_providers</title>
<polygon fill="none" stroke="black" points="16,-40.8 16,-92.8 288,-92.8 288,-40.8 16,-40.8"/>
</g>
<!-- RabbitContextCheckerService  -->
<g id="node1" class="node">
<title>RabbitContextCheckerService </title>
<polygon fill="#fb8072" stroke="black" points="246.78,-214.8 57.22,-214.8 57.22,-178.8 246.78,-178.8 246.78,-214.8"/>
<text text-anchor="middle" x="152" y="-192.6" font-family="Times,serif" font-size="14.00">RabbitContextCheckerService </text>
</g>
<!-- RabbitModule -->
<g id="node2" class="node">
<title>RabbitModule</title>
<polygon fill="#8dd3c7" stroke="black" points="200.38,-149.8 197.38,-153.8 176.38,-153.8 173.38,-149.8 103.62,-149.8 103.62,-113.8 200.38,-113.8 200.38,-149.8"/>
<text text-anchor="middle" x="152" y="-127.6" font-family="Times,serif" font-size="14.00">RabbitModule</text>
</g>
<!-- RabbitModule&#45;&gt;RabbitContextCheckerService  -->
<g id="edge1" class="edge">
<title>RabbitModule&#45;&gt;RabbitContextCheckerService </title>
<path fill="none" stroke="black" stroke-dasharray="5,2" d="M152,-149.91C152,-149.91 152,-168.79 152,-168.79"/>
<polygon fill="black" stroke="black" points="148.5,-168.79 152,-178.79 155.5,-168.79 148.5,-168.79"/>
</g>
<!-- RabbitContextCheckerService -->
<g id="node3" class="node">
<title>RabbitContextCheckerService</title>
<ellipse fill="#fdb462" stroke="black" cx="152" cy="-66.8" rx="128.49" ry="18"/>
<text text-anchor="middle" x="152" y="-62.6" font-family="Times,serif" font-size="14.00">RabbitContextCheckerService</text>
</g>
<!-- RabbitContextCheckerService&#45;&gt;RabbitModule -->
<g id="edge2" class="edge">
<title>RabbitContextCheckerService&#45;&gt;RabbitModule</title>
<path fill="none" stroke="black" d="M152,-84.91C152,-84.91 152,-103.79 152,-103.79"/>
<polygon fill="black" stroke="black" points="148.5,-103.79 152,-113.79 155.5,-103.79 148.5,-103.79"/>
</g>
</g>
</svg>
