<?xml version="1.0" encoding="UTF-8" standalone="no"?>
<!DOCTYPE svg PUBLIC "-//W3C//DTD SVG 1.1//EN"
 "http://www.w3.org/Graphics/SVG/1.1/DTD/svg11.dtd">
<!-- Generated by graphviz version 5.0.0 (20220707.1540)
 -->
<!-- Title: dependencies Pages: 1 -->
<svg width="641pt" height="247pt"
 viewBox="0.00 0.00 641.00 246.80" xmlns="http://www.w3.org/2000/svg" xmlns:xlink="http://www.w3.org/1999/xlink">
<g id="graph0" class="graph" transform="scale(1 1) rotate(0) translate(4 242.8)">
<title>dependencies</title>
<polygon fill="white" stroke="transparent" points="-4,4 -4,-242.8 637,-242.8 637,4 -4,4"/>
<text text-anchor="middle" x="316.5" y="-8.2" font-family="sans-serif" font-size="14.00">dependencies</text>
<g id="clust1" class="cluster">
<title>cluster_CachingModule</title>
<polygon fill="none" stroke="black" stroke-dasharray="1,5" points="8,-32.8 8,-230.8 625,-230.8 625,-32.8 8,-32.8"/>
</g>
<g id="clust6" class="cluster">
<title>cluster_CachingModule_providers</title>
<polygon fill="none" stroke="black" points="267,-40.8 267,-92.8 617,-92.8 617,-40.8 267,-40.8"/>
</g>
<g id="clust4" class="cluster">
<title>cluster_CachingModule_exports</title>
<polygon fill="none" stroke="black" points="217,-170.8 217,-222.8 341,-222.8 341,-170.8 217,-170.8"/>
</g>
<g id="clust3" class="cluster">
<title>cluster_CachingModule_imports</title>
<polygon fill="none" stroke="black" points="16,-40.8 16,-92.8 259,-92.8 259,-40.8 16,-40.8"/>
</g>
<!-- LoggingModule -->
<g id="node1" class="node">
<title>LoggingModule</title>
<polygon fill="#8dd3c7" stroke="black" points="251.49,-84.8 248.49,-88.8 227.49,-88.8 224.49,-84.8 144.51,-84.8 144.51,-48.8 251.49,-48.8 251.49,-84.8"/>
<text text-anchor="middle" x="198" y="-62.6" font-family="Times,serif" font-size="14.00">LoggingModule</text>
</g>
<!-- CachingModule -->
<g id="node3" class="node">
<title>CachingModule</title>
<polygon fill="#8dd3c7" stroke="black" points="332.21,-149.8 329.21,-153.8 308.21,-153.8 305.21,-149.8 225.79,-149.8 225.79,-113.8 332.21,-113.8 332.21,-149.8"/>
<text text-anchor="middle" x="279" y="-127.6" font-family="Times,serif" font-size="14.00">CachingModule</text>
</g>
<!-- LoggingModule&#45;&gt;CachingModule -->
<g id="edge1" class="edge">
<title>LoggingModule&#45;&gt;CachingModule</title>
<path fill="none" stroke="black" d="M238.7,-84.91C238.7,-84.91 238.7,-103.79 238.7,-103.79"/>
<polygon fill="black" stroke="black" points="235.2,-103.79 238.7,-113.79 242.2,-103.79 235.2,-103.79"/>
</g>
<!-- MetricsModule -->
<g id="node2" class="node">
<title>MetricsModule</title>
<polygon fill="#8dd3c7" stroke="black" points="126.32,-84.8 123.32,-88.8 102.32,-88.8 99.32,-84.8 23.68,-84.8 23.68,-48.8 126.32,-48.8 126.32,-84.8"/>
<text text-anchor="middle" x="75" y="-62.6" font-family="Times,serif" font-size="14.00">MetricsModule</text>
</g>
<!-- MetricsModule&#45;&gt;CachingModule -->
<g id="edge2" class="edge">
<title>MetricsModule&#45;&gt;CachingModule</title>
<path fill="none" stroke="black" d="M75,-84.91C75,-104.14 75,-131.8 75,-131.8 75,-131.8 215.67,-131.8 215.67,-131.8"/>
<polygon fill="black" stroke="black" points="215.67,-135.3 225.67,-131.8 215.67,-128.3 215.67,-135.3"/>
</g>
<!-- CachingService  -->
<g id="node4" class="node">
<title>CachingService </title>
<polygon fill="#fb8072" stroke="black" points="333.13,-214.8 224.87,-214.8 224.87,-178.8 333.13,-178.8 333.13,-214.8"/>
<text text-anchor="middle" x="279" y="-192.6" font-family="Times,serif" font-size="14.00">CachingService </text>
</g>
<!-- CachingModule&#45;&gt;CachingService  -->
<g id="edge3" class="edge">
<title>CachingModule&#45;&gt;CachingService </title>
<path fill="none" stroke="black" stroke-dasharray="5,2" d="M279,-149.91C279,-149.91 279,-168.79 279,-168.79"/>
<polygon fill="black" stroke="black" points="275.5,-168.79 279,-178.79 282.5,-168.79 275.5,-168.79"/>
</g>
<!-- CachingService -->
<g id="node5" class="node">
<title>CachingService</title>
<ellipse fill="#fdb462" stroke="black" cx="537" cy="-66.8" rx="72.35" ry="18"/>
<text text-anchor="middle" x="537" y="-62.6" font-family="Times,serif" font-size="14.00">CachingService</text>
</g>
<!-- CachingService&#45;&gt;CachingModule -->
<g id="edge4" class="edge">
<title>CachingService&#45;&gt;CachingModule</title>
<path fill="none" stroke="black" d="M537,-84.91C537,-104.14 537,-131.8 537,-131.8 537,-131.8 342.14,-131.8 342.14,-131.8"/>
<polygon fill="black" stroke="black" points="342.14,-128.3 332.14,-131.8 342.14,-135.3 342.14,-128.3"/>
</g>
<!-- LocalCacheService -->
<g id="node6" class="node">
<title>LocalCacheService</title>
<ellipse fill="#fdb462" stroke="black" cx="361" cy="-66.8" rx="86.21" ry="18"/>
<text text-anchor="middle" x="361" y="-62.6" font-family="Times,serif" font-size="14.00">LocalCacheService</text>
</g>
<!-- LocalCacheService&#45;&gt;CachingModule -->
<g id="edge5" class="edge">
<title>LocalCacheService&#45;&gt;CachingModule</title>
<path fill="none" stroke="black" d="M303.5,-80.27C303.5,-80.27 303.5,-103.66 303.5,-103.66"/>
<polygon fill="black" stroke="black" points="300,-103.66 303.5,-113.66 307,-103.66 300,-103.66"/>
</g>
</g>
</svg>
