<?xml version="1.0" encoding="UTF-8" standalone="no"?>
<!DOCTYPE svg PUBLIC "-//W3C//DTD SVG 1.1//EN"
 "http://www.w3.org/Graphics/SVG/1.1/DTD/svg11.dtd">
<!-- Generated by graphviz version 5.0.0 (20220707.1540)
 -->
<!-- Title: dependencies Pages: 1 -->
<svg width="194pt" height="247pt"
 viewBox="0.00 0.00 194.00 246.80" xmlns="http://www.w3.org/2000/svg" xmlns:xlink="http://www.w3.org/1999/xlink">
<g id="graph0" class="graph" transform="scale(1 1) rotate(0) translate(4 242.8)">
<title>dependencies</title>
<polygon fill="white" stroke="transparent" points="-4,4 -4,-242.8 190,-242.8 190,4 -4,4"/>
<text text-anchor="middle" x="93" y="-8.2" font-family="sans-serif" font-size="14.00">dependencies</text>
<g id="clust1" class="cluster">
<title>cluster_MetricsModule</title>
<polygon fill="none" stroke="black" stroke-dasharray="1,5" points="8,-32.8 8,-230.8 178,-230.8 178,-32.8 8,-32.8"/>
</g>
<g id="clust4" class="cluster">
<title>cluster_MetricsModule_exports</title>
<polygon fill="none" stroke="black" points="33,-170.8 33,-222.8 153,-222.8 153,-170.8 33,-170.8"/>
</g>
<g id="clust6" class="cluster">
<title>cluster_MetricsModule_providers</title>
<polygon fill="none" stroke="black" points="16,-40.8 16,-92.8 170,-92.8 170,-40.8 16,-40.8"/>
</g>
<!-- MetricsService  -->
<g id="node1" class="node">
<title>MetricsService </title>
<polygon fill="#fb8072" stroke="black" points="145.25,-214.8 40.75,-214.8 40.75,-178.8 145.25,-178.8 145.25,-214.8"/>
<text text-anchor="middle" x="93" y="-192.6" font-family="Times,serif" font-size="14.00">MetricsService </text>
</g>
<!-- MetricsModule -->
<g id="node2" class="node">
<title>MetricsModule</title>
<polygon fill="#8dd3c7" stroke="black" points="144.32,-149.8 141.32,-153.8 120.32,-153.8 117.32,-149.8 41.68,-149.8 41.68,-113.8 144.32,-113.8 144.32,-149.8"/>
<text text-anchor="middle" x="93" y="-127.6" font-family="Times,serif" font-size="14.00">MetricsModule</text>
</g>
<!-- MetricsModule&#45;&gt;MetricsService  -->
<g id="edge1" class="edge">
<title>MetricsModule&#45;&gt;MetricsService </title>
<path fill="none" stroke="black" stroke-dasharray="5,2" d="M93,-149.91C93,-149.91 93,-168.79 93,-168.79"/>
<polygon fill="black" stroke="black" points="89.5,-168.79 93,-178.79 96.5,-168.79 89.5,-168.79"/>
</g>
<!-- MetricsService -->
<g id="node3" class="node">
<title>MetricsService</title>
<ellipse fill="#fdb462" stroke="black" cx="93" cy="-66.8" rx="69.48" ry="18"/>
<text text-anchor="middle" x="93" y="-62.6" font-family="Times,serif" font-size="14.00">MetricsService</text>
</g>
<!-- MetricsService&#45;&gt;MetricsModule -->
<g id="edge2" class="edge">
<title>MetricsService&#45;&gt;MetricsModule</title>
<path fill="none" stroke="black" d="M93,-84.91C93,-84.91 93,-103.79 93,-103.79"/>
<polygon fill="black" stroke="black" points="89.5,-103.79 93,-113.79 96.5,-103.79 89.5,-103.79"/>
</g>
</g>
</svg>
