<?xml version="1.0" encoding="UTF-8" standalone="no"?>
<!DOCTYPE svg PUBLIC "-//W3C//DTD SVG 1.1//EN"
 "http://www.w3.org/Graphics/SVG/1.1/DTD/svg11.dtd">
<!-- Generated by graphviz version 5.0.0 (20220707.1540)
 -->
<!-- Title: dependencies Pages: 1 -->
<svg width="266pt" height="247pt"
 viewBox="0.00 0.00 266.00 246.80" xmlns="http://www.w3.org/2000/svg" xmlns:xlink="http://www.w3.org/1999/xlink">
<g id="graph0" class="graph" transform="scale(1 1) rotate(0) translate(4 242.8)">
<title>dependencies</title>
<polygon fill="white" stroke="transparent" points="-4,4 -4,-242.8 262,-242.8 262,4 -4,4"/>
<text text-anchor="middle" x="129" y="-8.2" font-family="sans-serif" font-size="14.00">dependencies</text>
<g id="clust1" class="cluster">
<title>cluster_InMemoryCacheModule</title>
<polygon fill="none" stroke="black" stroke-dasharray="1,5" points="8,-32.8 8,-230.8 250,-230.8 250,-32.8 8,-32.8"/>
</g>
<g id="clust4" class="cluster">
<title>cluster_InMemoryCacheModule_exports</title>
<polygon fill="none" stroke="black" points="43,-170.8 43,-222.8 215,-222.8 215,-170.8 43,-170.8"/>
</g>
<g id="clust6" class="cluster">
<title>cluster_InMemoryCacheModule_providers</title>
<polygon fill="none" stroke="black" points="16,-40.8 16,-92.8 242,-92.8 242,-40.8 16,-40.8"/>
</g>
<!-- InMemoryCacheService  -->
<g id="node1" class="node">
<title>InMemoryCacheService </title>
<polygon fill="#fb8072" stroke="black" points="207.34,-214.8 50.66,-214.8 50.66,-178.8 207.34,-178.8 207.34,-214.8"/>
<text text-anchor="middle" x="129" y="-192.6" font-family="Times,serif" font-size="14.00">InMemoryCacheService </text>
</g>
<!-- InMemoryCacheModule -->
<g id="node2" class="node">
<title>InMemoryCacheModule</title>
<polygon fill="#8dd3c7" stroke="black" points="206.41,-149.8 203.41,-153.8 182.41,-153.8 179.41,-149.8 51.59,-149.8 51.59,-113.8 206.41,-113.8 206.41,-149.8"/>
<text text-anchor="middle" x="129" y="-127.6" font-family="Times,serif" font-size="14.00">InMemoryCacheModule</text>
</g>
<!-- InMemoryCacheModule&#45;&gt;InMemoryCacheService  -->
<g id="edge1" class="edge">
<title>InMemoryCacheModule&#45;&gt;InMemoryCacheService </title>
<path fill="none" stroke="black" stroke-dasharray="5,2" d="M129,-149.91C129,-149.91 129,-168.79 129,-168.79"/>
<polygon fill="black" stroke="black" points="125.5,-168.79 129,-178.79 132.5,-168.79 125.5,-168.79"/>
</g>
<!-- InMemoryCacheService -->
<g id="node3" class="node">
<title>InMemoryCacheService</title>
<ellipse fill="#fdb462" stroke="black" cx="129" cy="-66.8" rx="105.35" ry="18"/>
<text text-anchor="middle" x="129" y="-62.6" font-family="Times,serif" font-size="14.00">InMemoryCacheService</text>
</g>
<!-- InMemoryCacheService&#45;&gt;InMemoryCacheModule -->
<g id="edge2" class="edge">
<title>InMemoryCacheService&#45;&gt;InMemoryCacheModule</title>
<path fill="none" stroke="black" d="M129,-84.91C129,-84.91 129,-103.79 129,-103.79"/>
<polygon fill="black" stroke="black" points="125.5,-103.79 129,-113.79 132.5,-103.79 125.5,-103.79"/>
</g>
</g>
</svg>
